<svg xmlns="http://www.w3.org/2000/svg" xmlns:xlink="http://www.w3.org/1999/xlink" width="500" zoomAndPan="magnify" viewBox="0 0 375 374.999991" height="500" preserveAspectRatio="xMidYMid meet" version="1.0"><defs><g/><clipPath id="c47f5b526b"><path d="M 146.171875 133.675781 L 194.171875 133.675781 L 194.171875 150.925781 L 146.171875 150.925781 Z M 146.171875 133.675781 " clip-rule="nonzero"/></clipPath></defs><rect x="-37.5" width="450" fill="#ffffff" y="-37.499999" height="449.999989" fill-opacity="1"/><rect x="-37.5" width="450" fill="#ffffff" y="-37.499999" height="449.999989" fill-opacity="1"/><g clip-path="url(#c47f5b526b)"><path fill="#000000" d="M 190.457031 134.261719 C 188.105469 134.261719 185.1875 134.273438 184.347656 134.425781 L 184.328125 134.191406 C 184.304688 133.914062 184.140625 133.703125 183.945312 133.703125 C 183.75 133.703125 183.585938 133.914062 183.566406 134.191406 L 183.542969 134.453125 C 183.21875 134.335938 182.46875 134.261719 180.753906 134.261719 C 177.972656 134.261719 173.714844 134.460938 173.714844 134.707031 C 173.714844 134.84375 174.652344 134.972656 177.433594 134.972656 C 179.761719 134.972656 182.636719 134.957031 183.515625 134.808594 L 183.414062 136.117188 L 181.820312 136.117188 C 181.820312 136.441406 181.847656 136.757812 181.890625 137.058594 L 174.4375 137.058594 C 174.34375 136.625 173.964844 136.296875 173.511719 136.296875 L 166.839844 136.296875 C 166.386719 136.296875 166.007812 136.625 165.914062 137.058594 L 158.464844 137.058594 C 158.507812 136.757812 158.53125 136.441406 158.53125 136.117188 L 156.941406 136.117188 L 156.835938 134.789062 C 157.171875 134.898438 157.925781 134.972656 159.597656 134.972656 C 162.378906 134.972656 166.640625 134.769531 166.640625 134.523438 C 166.640625 134.386719 165.699219 134.261719 162.917969 134.261719 C 160.5625 134.261719 157.648438 134.273438 156.804688 134.425781 L 156.789062 134.191406 C 156.765625 133.914062 156.601562 133.703125 156.40625 133.703125 C 156.210938 133.703125 156.046875 133.914062 156.027344 134.191406 L 156.003906 134.453125 C 155.679688 134.335938 154.929688 134.261719 153.214844 134.261719 C 150.433594 134.261719 146.171875 134.460938 146.171875 134.707031 C 146.171875 134.84375 147.113281 134.972656 149.894531 134.972656 C 152.222656 134.972656 155.097656 134.957031 155.976562 134.808594 L 155.871094 136.117188 L 154.28125 136.117188 C 154.28125 138.230469 155.234375 139.945312 156.40625 139.945312 C 156.957031 139.945312 157.453125 139.566406 157.832031 138.949219 L 167.445312 141.292969 L 165.824219 142.097656 C 164.679688 142.664062 163.808594 143.699219 163.433594 144.941406 L 162.121094 149.285156 C 162.058594 149.5 161.867188 149.644531 161.648438 149.644531 L 160.035156 149.644531 L 160.035156 150.910156 L 161.648438 150.910156 C 162.414062 150.910156 163.078125 150.410156 163.304688 149.660156 L 164.617188 145.316406 C 164.890625 144.410156 165.527344 143.652344 166.363281 143.238281 L 168.707031 142.078125 L 168.707031 142.609375 C 168.707031 142.878906 168.917969 143.09375 169.179688 143.09375 L 171.175781 143.09375 C 171.433594 143.09375 171.648438 142.878906 171.648438 142.609375 L 171.648438 142.078125 L 173.988281 143.238281 C 174.824219 143.652344 175.460938 144.410156 175.734375 145.316406 L 177.046875 149.660156 C 177.273438 150.410156 177.941406 150.910156 178.707031 150.910156 L 180.316406 150.910156 L 180.316406 149.644531 L 178.707031 149.644531 C 178.488281 149.644531 178.296875 149.5 178.230469 149.285156 L 176.917969 144.941406 C 176.542969 143.699219 175.671875 142.664062 174.53125 142.097656 L 172.910156 141.292969 L 182.519531 138.949219 C 182.898438 139.566406 183.398438 139.945312 183.945312 139.945312 C 185.121094 139.945312 186.070312 138.230469 186.070312 136.117188 L 184.480469 136.117188 L 184.375 134.789062 C 184.710938 134.898438 185.464844 134.972656 187.136719 134.972656 C 189.917969 134.972656 194.179688 134.769531 194.179688 134.523438 C 194.179688 134.386719 193.238281 134.261719 190.457031 134.261719 Z M 190.457031 134.261719 " fill-opacity="1" fill-rule="nonzero"/></g><g fill="#000000" fill-opacity="1"><g transform="translate(158.74579, 167.501148)"><g><path d="M 2.203125 0.0625 C 1.835938 0.0625 1.507812 -0.015625 1.21875 -0.171875 C 0.9375 -0.328125 0.710938 -0.5625 0.546875 -0.875 C 0.390625 -1.1875 0.3125 -1.566406 0.3125 -2.015625 C 0.3125 -2.472656 0.390625 -2.851562 0.546875 -3.15625 C 0.710938 -3.46875 0.9375 -3.703125 1.21875 -3.859375 C 1.507812 -4.015625 1.835938 -4.09375 2.203125 -4.09375 C 2.597656 -4.09375 2.929688 -4.015625 3.203125 -3.859375 C 3.472656 -3.710938 3.664062 -3.484375 3.78125 -3.171875 L 3.203125 -2.8125 L 3.125 -2.8125 C 3.039062 -3.03125 2.921875 -3.179688 2.765625 -3.265625 C 2.617188 -3.359375 2.429688 -3.40625 2.203125 -3.40625 C 1.867188 -3.40625 1.609375 -3.296875 1.421875 -3.078125 C 1.234375 -2.859375 1.140625 -2.503906 1.140625 -2.015625 C 1.140625 -1.535156 1.234375 -1.179688 1.421875 -0.953125 C 1.609375 -0.734375 1.867188 -0.625 2.203125 -0.625 C 2.734375 -0.625 3.054688 -0.878906 3.171875 -1.390625 L 3.234375 -1.390625 L 3.828125 -1.09375 C 3.710938 -0.707031 3.519531 -0.414062 3.25 -0.21875 C 2.988281 -0.03125 2.640625 0.0625 2.203125 0.0625 Z M 2.203125 0.0625 "/></g></g><g transform="translate(162.702981, 167.501148)"><g><path d="M 0.4375 0 L 0.4375 -4.265625 L 1.203125 -4.265625 L 1.203125 -2.65625 L 1.265625 -2.640625 C 1.367188 -2.785156 1.492188 -2.898438 1.640625 -2.984375 C 1.785156 -3.066406 1.960938 -3.109375 2.171875 -3.109375 C 2.835938 -3.109375 3.171875 -2.722656 3.171875 -1.953125 L 3.171875 0 L 2.40625 0 L 2.40625 -1.859375 C 2.40625 -2.066406 2.363281 -2.21875 2.28125 -2.3125 C 2.195312 -2.40625 2.070312 -2.453125 1.90625 -2.453125 C 1.6875 -2.453125 1.515625 -2.378906 1.390625 -2.234375 C 1.265625 -2.097656 1.203125 -1.878906 1.203125 -1.578125 L 1.203125 0 Z M 0.4375 0 "/></g></g><g transform="translate(166.268317, 167.501148)"><g><path d="M 1.1875 0.0625 C 0.988281 0.0625 0.816406 0.0234375 0.671875 -0.046875 C 0.535156 -0.117188 0.425781 -0.222656 0.34375 -0.359375 C 0.269531 -0.503906 0.234375 -0.675781 0.234375 -0.875 C 0.234375 -1.050781 0.269531 -1.195312 0.34375 -1.3125 C 0.425781 -1.4375 0.546875 -1.535156 0.703125 -1.609375 C 0.867188 -1.691406 1.082031 -1.753906 1.34375 -1.796875 C 1.519531 -1.828125 1.65625 -1.859375 1.75 -1.890625 C 1.851562 -1.929688 1.921875 -1.972656 1.953125 -2.015625 C 1.984375 -2.054688 2 -2.113281 2 -2.1875 C 2 -2.28125 1.960938 -2.351562 1.890625 -2.40625 C 1.828125 -2.457031 1.71875 -2.484375 1.5625 -2.484375 C 1.382812 -2.484375 1.21875 -2.445312 1.0625 -2.375 C 0.914062 -2.300781 0.785156 -2.203125 0.671875 -2.078125 L 0.625 -2.078125 L 0.296875 -2.5625 C 0.453125 -2.726562 0.640625 -2.859375 0.859375 -2.953125 C 1.085938 -3.054688 1.332031 -3.109375 1.59375 -3.109375 C 2 -3.109375 2.289062 -3.019531 2.46875 -2.84375 C 2.65625 -2.675781 2.75 -2.4375 2.75 -2.125 L 2.75 -0.796875 C 2.75 -0.660156 2.804688 -0.59375 2.921875 -0.59375 C 2.960938 -0.59375 3.007812 -0.597656 3.0625 -0.609375 L 3.09375 -0.609375 L 3.15625 -0.078125 C 3.113281 -0.046875 3.050781 -0.0195312 2.96875 0 C 2.894531 0.0078125 2.8125 0.015625 2.71875 0.015625 C 2.539062 0.015625 2.398438 -0.015625 2.296875 -0.078125 C 2.191406 -0.148438 2.117188 -0.257812 2.078125 -0.40625 L 2.015625 -0.421875 C 1.867188 -0.0976562 1.59375 0.0625 1.1875 0.0625 Z M 1.4375 -0.515625 C 1.613281 -0.515625 1.753906 -0.570312 1.859375 -0.6875 C 1.960938 -0.8125 2.015625 -0.976562 2.015625 -1.1875 L 2.015625 -1.5 L 1.953125 -1.515625 C 1.910156 -1.472656 1.851562 -1.4375 1.78125 -1.40625 C 1.707031 -1.382812 1.597656 -1.363281 1.453125 -1.34375 C 1.285156 -1.3125 1.164062 -1.257812 1.09375 -1.1875 C 1.019531 -1.125 0.984375 -1.035156 0.984375 -0.921875 C 0.984375 -0.785156 1.019531 -0.679688 1.09375 -0.609375 C 1.175781 -0.546875 1.289062 -0.515625 1.4375 -0.515625 Z M 1.4375 -0.515625 "/></g></g><g transform="translate(169.47767, 167.501148)"><g><path d="M 0.8125 -3.40625 C 0.675781 -3.40625 0.566406 -3.445312 0.484375 -3.53125 C 0.398438 -3.613281 0.359375 -3.722656 0.359375 -3.859375 C 0.359375 -3.992188 0.398438 -4.101562 0.484375 -4.1875 C 0.566406 -4.269531 0.675781 -4.3125 0.8125 -4.3125 C 0.90625 -4.3125 0.988281 -4.289062 1.0625 -4.25 C 1.132812 -4.207031 1.191406 -4.148438 1.234375 -4.078125 C 1.273438 -4.015625 1.296875 -3.941406 1.296875 -3.859375 C 1.296875 -3.773438 1.273438 -3.695312 1.234375 -3.625 C 1.191406 -3.5625 1.132812 -3.507812 1.0625 -3.46875 C 0.988281 -3.425781 0.90625 -3.40625 0.8125 -3.40625 Z M 0.4375 0 L 0.4375 -3.046875 L 1.203125 -3.046875 L 1.203125 0 Z M 0.4375 0 "/></g></g><g transform="translate(171.116842, 167.501148)"><g><path d="M 0.4375 0 L 0.4375 -3.046875 L 1.171875 -3.046875 L 1.171875 -2.59375 L 1.234375 -2.578125 C 1.421875 -2.929688 1.726562 -3.109375 2.15625 -3.109375 C 2.507812 -3.109375 2.765625 -3.007812 2.921875 -2.8125 C 3.085938 -2.625 3.171875 -2.347656 3.171875 -1.984375 L 3.171875 0 L 2.40625 0 L 2.40625 -1.890625 C 2.40625 -2.085938 2.363281 -2.226562 2.28125 -2.3125 C 2.207031 -2.40625 2.082031 -2.453125 1.90625 -2.453125 C 1.6875 -2.453125 1.515625 -2.378906 1.390625 -2.234375 C 1.265625 -2.097656 1.203125 -1.878906 1.203125 -1.578125 L 1.203125 0 Z M 0.4375 0 "/></g></g><g transform="translate(174.682177, 167.501148)"><g><path d="M 0.53125 0 L 0.53125 -2.4375 L 0.109375 -2.4375 L 0.109375 -3.046875 L 0.53125 -3.046875 C 0.5 -3.179688 0.484375 -3.300781 0.484375 -3.40625 C 0.484375 -3.601562 0.523438 -3.769531 0.609375 -3.90625 C 0.703125 -4.039062 0.832031 -4.144531 1 -4.21875 C 1.164062 -4.289062 1.363281 -4.328125 1.59375 -4.328125 C 1.925781 -4.328125 2.175781 -4.269531 2.34375 -4.15625 L 2.171875 -3.59375 L 2.109375 -3.578125 C 1.992188 -3.660156 1.847656 -3.703125 1.671875 -3.703125 C 1.535156 -3.703125 1.429688 -3.664062 1.359375 -3.59375 C 1.285156 -3.53125 1.25 -3.441406 1.25 -3.328125 C 1.25 -3.273438 1.25 -3.226562 1.25 -3.1875 C 1.257812 -3.144531 1.273438 -3.097656 1.296875 -3.046875 L 2.171875 -3.046875 L 2.171875 -2.4375 L 1.296875 -2.4375 L 1.296875 0 Z M 0.53125 0 "/></g></g><g transform="translate(176.878777, 167.501148)"><g><path d="M 1.265625 0.0625 C 0.992188 0.0625 0.785156 -0.0078125 0.640625 -0.15625 C 0.492188 -0.3125 0.421875 -0.539062 0.421875 -0.84375 L 0.421875 -4.265625 L 1.1875 -4.265625 L 1.1875 -0.875 C 1.1875 -0.6875 1.265625 -0.59375 1.421875 -0.59375 C 1.460938 -0.59375 1.507812 -0.597656 1.5625 -0.609375 L 1.59375 -0.609375 L 1.671875 -0.015625 C 1.628906 0.00390625 1.570312 0.0195312 1.5 0.03125 C 1.425781 0.0507812 1.347656 0.0625 1.265625 0.0625 Z M 1.265625 0.0625 "/></g></g><g transform="translate(178.62833, 167.501148)"><g><path d="M 0.671875 1.296875 C 0.546875 1.296875 0.425781 1.285156 0.3125 1.265625 C 0.207031 1.242188 0.125 1.21875 0.0625 1.1875 L 0.1875 0.5625 L 0.234375 0.546875 C 0.273438 0.566406 0.328125 0.582031 0.390625 0.59375 C 0.460938 0.613281 0.535156 0.625 0.609375 0.625 C 0.734375 0.625 0.835938 0.609375 0.921875 0.578125 C 1.003906 0.546875 1.070312 0.492188 1.125 0.421875 C 1.1875 0.347656 1.238281 0.242188 1.28125 0.109375 L 0.0625 -3.046875 L 0.875 -3.046875 L 1.625 -0.921875 L 1.6875 -0.921875 L 2.421875 -3.046875 L 3.203125 -3.046875 L 1.984375 0.1875 C 1.890625 0.445312 1.78125 0.65625 1.65625 0.8125 C 1.539062 0.976562 1.40625 1.097656 1.25 1.171875 C 1.09375 1.253906 0.898438 1.296875 0.671875 1.296875 Z M 0.671875 1.296875 "/></g></g></g></svg>